<svg xmlns="http://www.w3.org/2000/svg" viewBox="0 0 64 64" aria-label="Meditações Bíblicas">
  <!-- círculo -->
  <circle cx="32" cy="32" r="30" fill="#0d6efd" opacity="0.12"/>
  <circle cx="32" cy="32" r="26" fill="none" stroke="#0d6efd" stroke-width="3"/>

  <!-- livro aberto -->
  <path d="M18 24c7 0 10 2 14 4v24c-4-2-7-4-14-4-2 0-4 .3-6 1V25c2-.7 4-1 6-1Z"
        fill="#0d6efd" opacity="0.18"/>
  <path d="M46 24c-7 0-10 2-14 4v24c4-2 7-4 14-4 2 0 4 .3 6 1V25c-2-.7-4-1-6-1Z"
        fill="#0d6efd" opacity="0.18"/>

  <path d="M18 24c7 0 10 2 14 4m14-4c-7 0-10 2-14 4"
        fill="none" stroke="#0d6efd" stroke-width="3" stroke-linecap="round"/>

  <!-- cruz discreta -->
  <path d="M32 18v10m-5-5h10" stroke="#0d6efd" stroke-width="3" stroke-linecap="round"/>
</svg>